<svg version="1.2" xmlns="http://www.w3.org/2000/svg" viewBox="0 0 787 573" width="787" height="573">
	<title>undraw_warning_re_eoyh-svg</title>
	<style>
		.s0 { fill: #f2f2f2 } 
		.s1 { fill: #3f3d56 } 
		.s2 { fill: #225fa0 } 
		.s3 { fill: #2f2e41 } 
		.s4 { fill: #ffffff } 
		.s5 { fill: #ffb6b6 } 
		.s6 { opacity: .2;fill: #000000 } 
	</style>
	<path id="Layer" class="s0" d="m458.3 100.9c-14.7 0-26.7-12-26.7-26.7 0-14.8 12-26.7 26.7-26.7 14.8 0 26.7 11.9 26.7 26.7 0 14.7-11.9 26.7-26.7 26.7z"/>
	<path id="Layer" class="s0" d="m665.4 497.2c39.7-30.3 58.7-81.1 46.8-129.5q-0.4-1.8-0.9-3.6c-7.9-28.8-27.3-56.1-55.7-65.3-23.8-7.7-49.8-1.8-74.7-4.9-48.8-6-86.6-45.5-113.2-86.8-26.6-41.3-47.1-87.6-82.4-121.7-58.3-56.3-153.4-68.4-225.6-31.8-72.3 36.7-118.3 117.9-116.4 198.9 2 81 50.1 158.4 119.9 199.5 25.7 15.1 55.3 25.8 84.9 22.1 25.6-3.3 48.9-17 74.3-21.1 40.1-6.5 80 11.7 114.7 32.8 34.6 21.1 68.1 46.2 107.5 56 38.3 9.5 85.7-17.9 120.8-44.6z"/>
	<path id="Layer" class="s1" d="m0 434.3q3.3 3.8 6.6 7.6 3.4 3.7 7 7.4 3.5 3.6 7.1 7.1 3.7 3.5 7.4 6.8l730.6 1q3.8-3.3 7.4-6.8 3.6-3.5 7.2-7.1 3.5-3.7 6.9-7.4 3.4-3.8 6.6-7.6z"/>
	<path id="Layer" class="s1" d="m495.4 341.6v85.7q0 0.8 0.3 1.6 0.4 0.7 0.9 1.3 0.6 0.6 1.4 0.9 0.7 0.3 1.5 0.3h127.1q0.8 0 1.5-0.3 0.8-0.3 1.4-0.9 0.5-0.6 0.9-1.3 0.3-0.8 0.3-1.6v-85.7q0-0.8-0.3-1.6-0.4-0.7-0.9-1.3-0.6-0.6-1.4-0.9-0.7-0.3-1.5-0.3h-127.1q-0.8 0-1.5 0.3-0.8 0.3-1.4 0.9-0.5 0.6-0.9 1.3-0.3 0.8-0.3 1.6z"/>
	<path id="Layer" class="s2" d="m498.4 342.7v83.5q0 0.5 0.2 0.9 0.1 0.4 0.5 0.7 0.3 0.3 0.7 0.5 0.4 0.1 0.8 0.1h124.9q0.4 0 0.8-0.1 0.4-0.2 0.8-0.5 0.3-0.3 0.4-0.7 0.2-0.4 0.2-0.9v-83.5q0-0.5-0.2-0.9-0.1-0.4-0.4-0.7-0.4-0.3-0.8-0.5-0.4-0.1-0.8-0.1h-124.9q-0.4 0-0.8 0.1-0.4 0.2-0.7 0.5-0.4 0.3-0.5 0.7-0.2 0.4-0.2 0.9z"/>
	<path id="Layer" class="s3" d="m492.8 444q0.1 0.2 0.4 0.4 0.2 0.2 0.4 0.3 0.3 0.1 0.6 0.2 0.2 0 0.5 0h136q0.6 0 1.1-0.2 0.5-0.2 0.8-0.7 0.4-0.4 0.5-1 0.2-0.5 0.1-1.1l-2.2-10q0-0.3-0.2-0.6-0.1-0.3-0.3-0.5-0.2-0.2-0.5-0.4-0.2-0.2-0.5-0.3-0.1-0.1-0.2-0.1-0.1 0-0.3 0-0.1-0.1-0.2-0.1-0.1 0-0.2 0h-131.8q-0.1 0-0.2 0-0.1 0-0.2 0.1-0.1 0-0.3 0-0.1 0-0.2 0.1-0.3 0.1-0.5 0.3-0.3 0.2-0.5 0.4-0.2 0.2-0.3 0.5-0.2 0.3-0.2 0.6l-2.1 10q-0.1 0.3-0.1 0.6 0 0.3 0.1 0.5 0 0.3 0.2 0.5 0.1 0.3 0.3 0.5z"/>
	<path id="Layer" class="s1" d="m627.6 433.7c0 0.3-0.2 0.5-0.5 0.5h-3.2c-0.2 0-0.5-0.2-0.5-0.5v-1.5c0-0.3 0.3-0.5 0.5-0.5h3.2c0.3 0 0.5 0.2 0.5 0.5z"/>
	<path id="Layer" class="s1" d="m619.3 433.7c0 0.3-0.3 0.5-0.5 0.5h-3.2c-0.3 0-0.5-0.2-0.5-0.5v-1.5c0-0.3 0.2-0.5 0.5-0.5h3.2c0.2 0 0.5 0.2 0.5 0.5z"/>
	<path id="Layer" class="s1" d="m610.9 433.7c0 0.3-0.2 0.5-0.5 0.5h-3.2c-0.3 0-0.5-0.2-0.5-0.5v-1.5c0-0.3 0.2-0.5 0.5-0.5h3.2c0.3 0 0.5 0.2 0.5 0.5z"/>
	<path id="Layer" class="s1" d="m602.5 433.7c0 0.3-0.2 0.5-0.5 0.5h-3.2c-0.3 0-0.5-0.2-0.5-0.5v-1.5c0-0.3 0.2-0.5 0.5-0.5h3.2c0.3 0 0.5 0.2 0.5 0.5z"/>
	<path id="Layer" class="s1" d="m594.1 433.7c0 0.3-0.2 0.5-0.5 0.5h-3.2c-0.2 0-0.5-0.2-0.5-0.5v-1.5c0-0.3 0.3-0.5 0.5-0.5h3.2c0.3 0 0.5 0.2 0.5 0.5z"/>
	<path id="Layer" class="s1" d="m585.7 433.7c0 0.3-0.2 0.5-0.4 0.5h-3.3c-0.2 0-0.4-0.2-0.4-0.5v-1.5c0-0.3 0.2-0.5 0.4-0.5h3.3c0.2 0 0.4 0.2 0.4 0.5z"/>
	<path id="Layer" class="s1" d="m577.4 433.7c0 0.3-0.2 0.5-0.5 0.5h-3.2c-0.3 0-0.5-0.2-0.5-0.5v-1.5c0-0.3 0.2-0.5 0.5-0.5h3.2c0.3 0 0.5 0.2 0.5 0.5z"/>
	<path id="Layer" class="s1" d="m569 433.7c0 0.3-0.2 0.5-0.5 0.5h-3.2c-0.3 0-0.5-0.2-0.5-0.5v-1.5c0-0.3 0.2-0.5 0.5-0.5h3.2c0.3 0 0.5 0.2 0.5 0.5z"/>
	<path id="Layer" class="s1" d="m560.6 433.7c0 0.3-0.2 0.5-0.5 0.5h-3.2c-0.3 0-0.5-0.2-0.5-0.5v-1.5c0-0.3 0.2-0.5 0.5-0.5h3.2c0.3 0 0.5 0.2 0.5 0.5z"/>
	<path id="Layer" class="s1" d="m552.2 433.7c0 0.3-0.2 0.5-0.4 0.5h-3.3c-0.2 0-0.4-0.2-0.4-0.5v-1.5c0-0.3 0.2-0.5 0.4-0.5h3.3c0.2 0 0.4 0.2 0.4 0.5z"/>
	<path id="Layer" class="s1" d="m543.9 433.7c0 0.3-0.3 0.5-0.5 0.5h-3.2c-0.3 0-0.5-0.2-0.5-0.5v-1.5c0-0.3 0.2-0.5 0.5-0.5h3.2c0.2 0 0.5 0.2 0.5 0.5z"/>
	<path id="Layer" class="s1" d="m535.5 433.7c0 0.3-0.2 0.5-0.5 0.5h-3.2c-0.3 0-0.5-0.2-0.5-0.5v-1.5c0-0.3 0.2-0.5 0.5-0.5h3.2c0.3 0 0.5 0.2 0.5 0.5z"/>
	<path id="Layer" class="s1" d="m527.1 433.7c0 0.3-0.2 0.5-0.5 0.5h-3.2c-0.3 0-0.5-0.2-0.5-0.5v-1.5c0-0.3 0.2-0.5 0.5-0.5h3.2c0.3 0 0.5 0.2 0.5 0.5z"/>
	<path id="Layer" class="s1" d="m518.7 433.7c0 0.3-0.2 0.5-0.5 0.5h-3.2c-0.2 0-0.5-0.2-0.5-0.5v-1.5c0-0.3 0.3-0.5 0.5-0.5h3.2c0.3 0 0.5 0.2 0.5 0.5z"/>
	<path id="Layer" class="s1" d="m510.4 433.7c0 0.3-0.3 0.5-0.5 0.5h-3.2c-0.3 0-0.5-0.2-0.5-0.5v-1.5c0-0.3 0.2-0.5 0.5-0.5h3.2c0.2 0 0.5 0.2 0.5 0.5z"/>
	<path id="Layer" class="s1" d="m502 433.7c0 0.3-0.2 0.5-0.5 0.5h-3.2c-0.3 0-0.5-0.2-0.5-0.5v-1.5c0-0.3 0.2-0.5 0.5-0.5h3.2c0.3 0 0.5 0.2 0.5 0.5z"/>
	<path id="Layer" class="s1" d="m627.7 437.9c0 0.3-0.2 0.5-0.5 0.5h-3.2c-0.2 0-0.5-0.2-0.5-0.5v-1.5c0-0.3 0.3-0.5 0.5-0.5h3.2c0.3 0 0.5 0.2 0.5 0.5z"/>
	<path id="Layer" class="s1" d="m619.4 437.9c0 0.3-0.3 0.5-0.5 0.5h-3.2c-0.3 0-0.5-0.2-0.5-0.5v-1.5c0-0.3 0.2-0.5 0.5-0.5h3.2c0.2 0 0.5 0.2 0.5 0.5z"/>
	<path id="Layer" class="s1" d="m611 437.9c0 0.3-0.2 0.5-0.5 0.5h-3.2c-0.3 0-0.5-0.2-0.5-0.5v-1.5c0-0.3 0.2-0.5 0.5-0.5h3.2c0.3 0 0.5 0.2 0.5 0.5z"/>
	<path id="Layer" class="s1" d="m602.6 437.9c0 0.3-0.2 0.5-0.5 0.5h-3.2c-0.3 0-0.5-0.2-0.5-0.5v-1.5c0-0.3 0.2-0.5 0.5-0.5h3.2c0.3 0 0.5 0.2 0.5 0.5z"/>
	<path id="Layer" class="s1" d="m594.2 437.9c0 0.3-0.2 0.5-0.5 0.5h-3.2c-0.2 0-0.5-0.2-0.5-0.5v-1.5c0-0.3 0.3-0.5 0.5-0.5h3.2c0.3 0 0.5 0.2 0.5 0.5z"/>
	<path id="Layer" class="s1" d="m585.8 437.9c0 0.3-0.2 0.5-0.4 0.5h-3.3c-0.2 0-0.4-0.2-0.4-0.5v-1.5c0-0.3 0.2-0.5 0.4-0.5h3.3c0.2 0 0.4 0.2 0.4 0.5z"/>
	<path id="Layer" class="s1" d="m577.5 437.9c0 0.3-0.2 0.5-0.5 0.5h-3.2c-0.3 0-0.5-0.2-0.5-0.5v-1.5c0-0.3 0.2-0.5 0.5-0.5h3.2c0.3 0 0.5 0.2 0.5 0.5z"/>
	<path id="Layer" class="s1" d="m569.1 437.9c0 0.3-0.2 0.5-0.5 0.5h-3.2c-0.3 0-0.5-0.2-0.5-0.5v-1.5c0-0.3 0.2-0.5 0.5-0.5h3.2c0.3 0 0.5 0.2 0.5 0.5z"/>
	<path id="Layer" class="s1" d="m560.7 437.9c0 0.3-0.2 0.5-0.5 0.5h-3.2c-0.3 0-0.5-0.2-0.5-0.5v-1.5c0-0.3 0.2-0.5 0.5-0.5h3.2c0.3 0 0.5 0.2 0.5 0.5z"/>
	<path id="Layer" class="s1" d="m552.3 437.9c0 0.3-0.2 0.5-0.4 0.5h-3.3c-0.2 0-0.5-0.2-0.5-0.5v-1.5c0-0.3 0.3-0.5 0.5-0.5h3.3c0.2 0 0.4 0.2 0.4 0.5z"/>
	<path id="Layer" class="s1" d="m544 437.9c0 0.3-0.3 0.5-0.5 0.5h-3.2c-0.3 0-0.5-0.2-0.5-0.5v-1.5c0-0.3 0.2-0.5 0.5-0.5h3.2c0.2 0 0.5 0.2 0.5 0.5z"/>
	<path id="Layer" class="s1" d="m535.6 437.9c0 0.3-0.2 0.5-0.5 0.5h-3.2c-0.3 0-0.5-0.2-0.5-0.5v-1.5c0-0.3 0.2-0.5 0.5-0.5h3.2c0.3 0 0.5 0.2 0.5 0.5z"/>
	<path id="Layer" class="s1" d="m527.2 437.9c0 0.3-0.2 0.5-0.5 0.5h-3.2c-0.3 0-0.5-0.2-0.5-0.5v-1.5c0-0.3 0.2-0.5 0.5-0.5h3.2c0.3 0 0.5 0.2 0.5 0.5z"/>
	<path id="Layer" class="s1" d="m518.8 437.9c0 0.3-0.2 0.5-0.5 0.5h-3.2c-0.2 0-0.5-0.2-0.5-0.5v-1.5c0-0.3 0.3-0.5 0.5-0.5h3.2c0.3 0 0.5 0.2 0.5 0.5z"/>
	<path id="Layer" class="s1" d="m510.5 437.9c0 0.3-0.3 0.5-0.5 0.5h-3.2c-0.3 0-0.5-0.2-0.5-0.5v-1.5c0-0.3 0.2-0.5 0.5-0.5h3.2c0.2 0 0.5 0.2 0.5 0.5z"/>
	<path id="Layer" class="s1" d="m502.1 437.9c0 0.3-0.2 0.5-0.5 0.5h-3.2c-0.3 0-0.5-0.2-0.5-0.5v-1.5c0-0.3 0.2-0.5 0.5-0.5h3.2c0.3 0 0.5 0.2 0.5 0.5z"/>
	<path id="Layer" class="s1" d="m587.5 443c0 0.2-0.2 0.4-0.5 0.4h-32.5c-0.3 0-0.5-0.2-0.5-0.4v-1.6c0-0.2 0.2-0.5 0.5-0.5h32.5c0.3 0 0.5 0.3 0.5 0.5z"/>
	<path id="Layer" class="s4" d="m515.6 360.3c0-0.9 0.7-1.6 1.6-1.6h2.8c0.9 0 1.6 0.7 1.6 1.6 0 0.9-0.7 1.6-1.6 1.6h-2.8c-0.9 0-1.6-0.7-1.6-1.6z"/>
	<path id="Layer" class="s4" d="m548.2 360.3c0-0.9 0.7-1.6 1.5-1.6h2.9c0.8 0 1.5 0.7 1.5 1.6 0 0.9-0.7 1.6-1.5 1.6h-2.9c-0.8 0-1.5-0.7-1.5-1.6z"/>
	<path id="Layer" class="s4" d="m557.4 360.3c0-0.9 0.7-1.6 1.5-1.6h2.9c0.8 0 1.5 0.7 1.5 1.6 0 0.9-0.7 1.6-1.5 1.6h-2.9c-0.8 0-1.5-0.7-1.5-1.6z"/>
	<path id="Layer" class="s4" d="m524.5 360c0-0.8 0.7-1.5 1.5-1.5h17.7c0.9 0 1.6 0.7 1.6 1.5 0 0.9-0.7 1.6-1.6 1.6h-17.7c-0.8 0-1.5-0.7-1.5-1.6z"/>
	<path id="Layer" class="s4" d="m567.8 360c0-0.8 0.7-1.5 1.6-1.5h17.7c0.8 0 1.5 0.7 1.5 1.5 0 0.9-0.7 1.6-1.5 1.6h-17.7c-0.9 0-1.6-0.7-1.6-1.6z"/>
	<path id="Layer" class="s4" d="m524.3 367.3c0-0.8 0.7-1.5 1.6-1.5h2.8c0.9 0 1.6 0.7 1.6 1.5 0 0.9-0.7 1.6-1.6 1.6h-2.8c-0.9 0-1.6-0.7-1.6-1.6z"/>
	<path id="Layer" class="s4" d="m556.8 367.3c0-0.8 0.7-1.5 1.6-1.5h2.8c0.9 0 1.6 0.7 1.6 1.5 0 0.9-0.7 1.6-1.6 1.6h-2.8c-0.9 0-1.6-0.7-1.6-1.6z"/>
	<path id="Layer" class="s4" d="m566 367.3c0-0.8 0.7-1.5 1.6-1.5h2.8c0.9 0 1.6 0.7 1.6 1.5 0 0.9-0.7 1.6-1.6 1.6h-2.8c-0.9 0-1.6-0.7-1.6-1.6z"/>
	<path id="Layer" class="s4" d="m533.2 367.1c0-0.9 0.6-1.6 1.5-1.6h17.7c0.8 0 1.5 0.7 1.5 1.6 0 0.8-0.7 1.5-1.5 1.5h-17.7c-0.9 0-1.5-0.7-1.5-1.5z"/>
	<path id="Layer" class="s4" d="m576.5 367.1c0-0.9 0.7-1.6 1.6-1.6h17.6c0.9 0 1.6 0.7 1.6 1.6 0 0.8-0.7 1.5-1.6 1.5h-17.6c-0.9 0-1.6-0.7-1.6-1.5z"/>
	<path id="Layer" class="s4" d="m533 374.4c0-0.9 0.7-1.6 1.5-1.6h2.9c0.8 0 1.5 0.7 1.5 1.6 0 0.9-0.7 1.6-1.5 1.6h-2.9c-0.8 0-1.5-0.7-1.5-1.6z"/>
	<path id="Layer" class="s4" d="m565.5 374.4c0-0.9 0.7-1.6 1.6-1.6h2.8c0.9 0 1.6 0.7 1.6 1.6 0 0.9-0.7 1.6-1.6 1.6h-2.8c-0.9 0-1.6-0.7-1.6-1.6z"/>
	<path id="Layer" class="s4" d="m574.7 374.4c0-0.9 0.7-1.6 1.6-1.6h2.8c0.9 0 1.6 0.7 1.6 1.6 0 0.9-0.7 1.6-1.6 1.6h-2.8c-0.9 0-1.6-0.7-1.6-1.6z"/>
	<path id="Layer" class="s4" d="m541.8 374.1c0-0.8 0.7-1.5 1.6-1.5h17.7c0.8 0 1.5 0.7 1.5 1.5 0 0.9-0.7 1.6-1.5 1.6h-17.7c-0.9 0-1.6-0.7-1.6-1.6z"/>
	<path id="Layer" class="s4" d="m585.2 374.1c0-0.8 0.7-1.5 1.5-1.5h17.7c0.9 0 1.6 0.7 1.6 1.5 0 0.9-0.7 1.6-1.6 1.6h-17.7c-0.8 0-1.5-0.7-1.5-1.6z"/>
	<path id="Layer" class="s4" d="m541.6 381.4c0-0.8 0.7-1.5 1.6-1.5h2.9c0.8 0 1.5 0.7 1.5 1.5 0 0.9-0.7 1.6-1.5 1.6h-2.9c-0.9 0-1.6-0.7-1.6-1.6z"/>
	<path id="Layer" class="s4" d="m574.2 381.4c0-0.8 0.7-1.5 1.5-1.5h2.9c0.8 0 1.5 0.7 1.5 1.5 0 0.9-0.7 1.6-1.5 1.6h-2.9c-0.8 0-1.5-0.7-1.5-1.6z"/>
	<path id="Layer" class="s4" d="m583.4 381.4c0-0.8 0.7-1.5 1.5-1.5h2.9c0.9 0 1.6 0.7 1.6 1.5 0 0.9-0.7 1.6-1.6 1.6h-2.9c-0.8 0-1.5-0.7-1.5-1.6z"/>
	<path id="Layer" class="s4" d="m550.5 381.2c0-0.9 0.7-1.6 1.6-1.6h17.6c0.9 0 1.6 0.7 1.6 1.6 0 0.8-0.7 1.5-1.6 1.5h-17.6c-0.9 0-1.6-0.7-1.6-1.5z"/>
	<path id="Layer" class="s4" d="m548.2 409.5c0-0.9 0.7-1.6 1.5-1.6h2.9c0.8 0 1.5 0.7 1.5 1.6 0 0.8-0.7 1.5-1.5 1.5h-2.9c-0.8 0-1.5-0.7-1.5-1.5z"/>
	<path id="Layer" class="s4" d="m557.4 409.5c0-0.9 0.7-1.6 1.5-1.6h2.9c0.8 0 1.5 0.7 1.5 1.6 0 0.8-0.7 1.5-1.5 1.5h-2.9c-0.8 0-1.5-0.7-1.5-1.5z"/>
	<path id="Layer" class="s4" d="m567.8 409.7c0-0.8 0.7-1.5 1.6-1.5h17.7c0.8 0 1.5 0.7 1.5 1.5 0 0.9-0.7 1.6-1.5 1.6h-17.7c-0.9 0-1.6-0.7-1.6-1.6z"/>
	<path id="Layer" class="s4" d="m515.6 409.5c0-0.9 0.7-1.6 1.6-1.6h2.8c0.9 0 1.6 0.7 1.6 1.6 0 0.8-0.7 1.5-1.6 1.5h-2.8c-0.9 0-1.6-0.7-1.6-1.5z"/>
	<path id="Layer" class="s4" d="m524.5 409.7c0-0.8 0.7-1.5 1.5-1.5h17.7c0.9 0 1.6 0.7 1.6 1.5 0 0.9-0.7 1.6-1.6 1.6h-17.7c-0.8 0-1.5-0.7-1.5-1.6z"/>
	<path id="Layer" class="s4" d="m524.3 402.4c0-0.9 0.7-1.5 1.6-1.5h2.8c0.9 0 1.6 0.6 1.6 1.5 0 0.9-0.7 1.6-1.6 1.6h-2.8c-0.9 0-1.6-0.7-1.6-1.6z"/>
	<path id="Layer" class="s4" d="m556.8 402.4c0-0.9 0.7-1.5 1.6-1.5h2.8c0.9 0 1.6 0.6 1.6 1.5 0 0.9-0.7 1.6-1.6 1.6h-2.8c-0.9 0-1.6-0.7-1.6-1.6z"/>
	<path id="Layer" class="s4" d="m566 402.4c0-0.9 0.7-1.5 1.6-1.5h2.8c0.9 0 1.6 0.6 1.6 1.5 0 0.9-0.7 1.6-1.6 1.6h-2.8c-0.9 0-1.6-0.7-1.6-1.6z"/>
	<path id="Layer" class="s4" d="m533.2 402.7c0-0.9 0.6-1.6 1.5-1.6h17.7c0.8 0 1.5 0.7 1.5 1.6 0 0.8-0.7 1.5-1.5 1.5h-17.7c-0.9 0-1.5-0.7-1.5-1.5z"/>
	<path id="Layer" class="s4" d="m533 395.4c0-0.9 0.7-1.6 1.5-1.6h2.9c0.8 0 1.5 0.7 1.5 1.6 0 0.8-0.7 1.5-1.5 1.5h-2.9c-0.8 0-1.5-0.7-1.5-1.5z"/>
	<path id="Layer" class="s4" d="m565.5 395.4c0-0.9 0.7-1.6 1.6-1.6h2.8c0.9 0 1.6 0.7 1.6 1.6 0 0.8-0.7 1.5-1.6 1.5h-2.8c-0.9 0-1.6-0.7-1.6-1.5z"/>
	<path id="Layer" class="s4" d="m574.7 395.4c0-0.9 0.7-1.6 1.6-1.6h2.8c0.9 0 1.6 0.7 1.6 1.6 0 0.8-0.7 1.5-1.6 1.5h-2.8c-0.9 0-1.6-0.7-1.6-1.5z"/>
	<path id="Layer" class="s4" d="m541.8 395.6c0-0.8 0.7-1.5 1.6-1.5h17.7c0.8 0 1.5 0.7 1.5 1.5 0 0.9-0.7 1.6-1.5 1.6h-17.7c-0.9 0-1.6-0.7-1.6-1.6z"/>
	<path id="Layer" class="s4" d="m541.6 388.3c0-0.8 0.7-1.5 1.6-1.5h2.9c0.8 0 1.5 0.7 1.5 1.5 0 0.9-0.7 1.6-1.5 1.6h-2.9c-0.9 0-1.6-0.7-1.6-1.6z"/>
	<path id="Layer" class="s4" d="m574.2 388.3c0-0.8 0.7-1.5 1.5-1.5h2.9c0.8 0 1.5 0.7 1.5 1.5 0 0.9-0.7 1.6-1.5 1.6h-2.9c-0.8 0-1.5-0.7-1.5-1.6z"/>
	<path id="Layer" class="s4" d="m583.4 388.3c0-0.8 0.7-1.5 1.5-1.5h2.9c0.9 0 1.6 0.7 1.6 1.5 0 0.9-0.7 1.6-1.6 1.6h-2.9c-0.8 0-1.5-0.7-1.5-1.6z"/>
	<path id="Layer" class="s4" d="m550.5 388.6c0-0.9 0.7-1.6 1.6-1.6h17.6c0.9 0 1.6 0.7 1.6 1.6 0 0.8-0.7 1.5-1.6 1.5h-17.6c-0.9 0-1.6-0.7-1.6-1.5z"/>
	<path id="Layer" class="s1" d="m191.5 436.8v9.9q0 0.3 0.1 0.7 0.2 0.3 0.4 0.6 0.3 0.3 0.7 0.4 0.3 0.2 0.7 0.2h68.4q0.4 0 0.8-0.2 0.3-0.1 0.6-0.4 0.3-0.3 0.4-0.6 0.2-0.4 0.2-0.7v-9.9z"/>
	<path id="Layer" class="s3" d="m135.8 447.9q0.2 0.3 0.5 0.5 0.2 0.2 0.5 0.3 0.3 0.2 0.7 0.3 0.3 0 0.6 0h162.4q0.6 0 1.3-0.3 0.6-0.3 1-0.8 0.4-0.5 0.6-1.2 0.1-0.6 0-1.3l-2.5-11.9q-0.1-0.4-0.3-0.7-0.1-0.4-0.4-0.7-0.2-0.2-0.5-0.5-0.3-0.2-0.7-0.3-0.1-0.1-0.2-0.1-0.2 0-0.3-0.1-0.1 0-0.3 0-0.1 0-0.3 0h-157.3q-0.1 0-0.2 0-0.2 0-0.3 0-0.1 0.1-0.3 0.1-0.1 0-0.2 0.1-0.4 0.1-0.7 0.3-0.3 0.3-0.5 0.5-0.3 0.3-0.4 0.7-0.2 0.3-0.3 0.7l-2.5 11.9q-0.1 0.4-0.1 0.7 0 0.3 0.1 0.6 0.1 0.4 0.3 0.7 0.1 0.3 0.3 0.5z"/>
	<g id="system">
		<path id="Layer" fill-rule="evenodd" class="s3" d="m165.5 310.9q0.3-0.8 0.9-1.4 0.6-0.6 1.4-0.9 0.8-0.4 1.7-0.4h80.7q0.1 0 0.3 0.1 0.2 0 0.3 0 0.2 0 0.4 0.1 0.1 0 0.3 0 0.6 0.2 1.2 0.6 0.5 0.4 1 1 0.4 0.6 0.6 1.2 0.2 0.7 0.2 1.3v127.5h-89.3v-127.5q0-0.8 0.3-1.6zm34.5 60.2c0 2.6 1 5 2.8 6.8 1.8 1.7 4.2 2.7 6.8 2.7 2.5 0 4.9-1 6.7-2.7 1.8-1.8 2.8-4.2 2.8-6.8v-14.7c0-2.6-1-5-2.8-6.7-1.8-1.8-4.2-2.8-6.7-2.8-2.6 0-5 1-6.8 2.8-1.7 1.7-2.8 4.1-2.8 6.7z"/>
		<path id="Layer" class="s1" d="m24.7 120.5v232.7c0 1.5 0.3 3 0.8 4.3 0.6 1.4 1.4 2.6 2.4 3.7 1.1 1 2.3 1.8 3.7 2.4 1.3 0.5 2.8 0.8 4.2 0.8h345c1.5 0 2.9-0.3 4.3-0.8 1.3-0.6 2.6-1.4 3.6-2.4 1.1-1.1 1.9-2.3 2.4-3.7 0.6-1.3 0.9-2.8 0.9-4.3v-232.7c0-1.5-0.3-3-0.9-4.3-0.5-1.4-1.3-2.6-2.4-3.6-1-1.1-2.3-1.9-3.6-2.5-1.4-0.5-2.8-0.8-4.3-0.8h-345c-1.4 0-2.9 0.3-4.2 0.8-1.4 0.6-2.6 1.4-3.7 2.5-1 1-1.8 2.2-2.4 3.6-0.5 1.3-0.8 2.8-0.8 4.3z"/>
		<path id="Layer" class="s4" d="m32.8 123.4v227q0 1.2 0.4 2.3 0.5 1.1 1.3 1.9 0.8 0.8 1.9 1.3 1.1 0.5 2.3 0.5h339.2q1.2 0 2.3-0.5 1.1-0.5 2-1.3 0.8-0.8 1.3-1.9 0.4-1.1 0.4-2.3v-227q0-1.2-0.4-2.3-0.5-1.1-1.3-2-0.9-0.8-2-1.3-1.1-0.4-2.3-0.4h-339.2q-1.2 0-2.3 0.4-1.1 0.5-1.9 1.3-0.8 0.9-1.3 2-0.4 1.1-0.4 2.3z"/>
		<path id="Layer" class="s1" d="m366.9 148.6h-317.4c-0.3 0-0.6-0.1-0.8-0.3-0.3-0.3-0.4-0.6-0.4-0.9 0-0.4 0.1-0.7 0.4-0.9 0.2-0.2 0.5-0.4 0.8-0.4h317.4c0.4 0 0.7 0.2 0.9 0.4 0.2 0.2 0.4 0.5 0.4 0.9 0 0.3-0.2 0.6-0.4 0.9-0.2 0.2-0.5 0.3-0.9 0.3z"/>
		<path id="Layer" class="s1" d="m71.1 139.7c-4 0-7.4-3.4-7.4-7.6 0-4.2 3.4-7.6 7.4-7.6 4.1 0 7.4 3.4 7.4 7.6 0 4.2-3.3 7.6-7.4 7.6z"/>
		<path id="Layer" class="s1" d="m96.7 139.7c-4.1 0-7.4-3.4-7.4-7.6 0-4.2 3.3-7.6 7.4-7.6 4.1 0 7.4 3.4 7.4 7.6 0 4.2-3.3 7.6-7.4 7.6z"/>
		<path id="Layer" class="s1" d="m122.2 139.7c-4 0-7.3-3.4-7.3-7.6 0-4.2 3.3-7.6 7.3-7.6 4.1 0 7.4 3.4 7.4 7.6 0 4.2-3.3 7.6-7.4 7.6z"/>
		<path id="Layer" fill-rule="evenodd" class="s1" d="m265.6 327.3h-132.3c-6.6 0-12.6-3.4-15.9-9.2-1.7-2.8-2.5-6-2.5-9.2 0-3.1 0.8-6.3 2.5-9.1l66.1-120.4c3.3-5.7 9.3-9.2 15.9-9.2 6.7 0 12.6 3.5 15.9 9.2l66.2 120.3c1.7 2.9 2.5 6 2.5 9.2 0 3.1-0.8 6.3-2.5 9.2-3.3 5.7-9.2 9.2-15.9 9.2q0 0 0 0zm-149-18.4c0 2.9 14.6-3.3 16.1-0.7 3 5.3-5.4 17.5 0.6 17.5 0 0 143.8-3.2 146.8-8.4 1.5-2.7 2.2-5.5 2.2-8.4 0-2.9-0.7-5.8-2.2-8.4l-66.2-120.3c-3-5.2-8.4-8.3-14.5-8.3-6 0-82.8 134.2-82.8 137z"/>
		<path id="Layer" class="s2" d="m238 300.7c-33.5 0-60.5-27-60.5-60.5 0-33.5 27-60.6 60.5-60.6 33.5 0 60.6 27.1 60.6 60.6 0 33.5-27.1 60.5-60.6 60.5z"/>
		<path id="Layer" class="s4" d="m238 203.1c-0.5 3.4 0.4 4.1 0.4 18.7 0 14.6 3 34.2-0.4 34.2-3.4 0-4.7-40.4-16.6-44-14-4.2 18.3-19.9 16.6-8.9z"/>
		<path id="Layer" class="s1" d="m156.7 271.1l-5.4 11.6c6.6-4.8 16.9-8.9 25.1-11.1-7.6-3.7-17-9.6-22.6-15.5l3.1 12.2c-36.9-7.5-63.3-35.8-63.4-68.3l-1.3-0.4c0 33.9 26.1 63.8 64.5 71.5z"/>
		<g id="Folder 2">
			<path id="Layer" class="s1" d="m358.6 127.8h-14.6c-0.3 0-0.5 0.1-0.7 0.3-0.3 0.2-0.4 0.5-0.4 0.8 0 0.2 0.1 0.5 0.4 0.7 0.2 0.2 0.4 0.4 0.7 0.4h14.6c0.3 0 0.6-0.2 0.8-0.4 0.2-0.2 0.3-0.5 0.3-0.7 0-0.3-0.1-0.6-0.3-0.8-0.2-0.2-0.5-0.3-0.8-0.3z"/>
			<path id="Layer" class="s1" d="m358.6 131.9h-14.6c-0.3 0-0.5 0.1-0.7 0.3-0.3 0.2-0.4 0.5-0.4 0.8 0 0.3 0.1 0.6 0.4 0.8 0.2 0.2 0.4 0.3 0.7 0.3h14.6c0.3 0 0.6-0.1 0.8-0.3 0.2-0.2 0.3-0.5 0.3-0.8 0-0.3-0.1-0.6-0.3-0.8-0.2-0.2-0.5-0.3-0.8-0.3z"/>
			<path id="Layer" class="s1" d="m358.6 136.1h-14.6c-0.3 0-0.5 0.1-0.7 0.3-0.3 0.2-0.4 0.5-0.4 0.8 0 0.2 0.1 0.5 0.4 0.7 0.2 0.2 0.4 0.4 0.7 0.4h14.6c0.3 0 0.6-0.2 0.8-0.4 0.2-0.2 0.3-0.5 0.3-0.7 0-0.3-0.1-0.6-0.3-0.8-0.2-0.2-0.5-0.3-0.8-0.3z"/>
		</g>
	</g>
	<path id="Layer" class="s4" d="m239.5 279.2c-3.7 0-6.7-3-6.7-6.7 0-3.7 3-6.7 6.7-6.7 3.7 0 6.7 3 6.7 6.7 0 3.7-3 6.7-6.7 6.7z"/>
	<path id="Layer" fill-rule="evenodd" class="s3" d="m686.5 389.1q-0.4-1.3-0.3-2.7 0.2-1.4 0.9-2.6 0.7-1.1 1.8-1.9 1.1-0.8 2.5-1.1 0.1 0 0.2 0 0.2-0.1 0.3-0.1 0.1 0 0.2 0 0.2 0 0.3 0l40.7-1.1q0.7 0 1.4 0.2 0.7 0.1 1.3 0.4 0.6 0.2 1.2 0.6 0.6 0.4 1 0.9 0.2 0 0.4 0 0.3-0.1 0.5-0.1 0.2 0 0.4 0 0.2 0 0.5 0c2.5-0.1 5 0.9 6.9 2.6 1.8 1.8 2.9 4.2 3 6.8 0 2.5-0.9 5-2.7 6.9-1.8 1.8-4.2 2.9-6.8 3q-0.5 0-1.1-0.1-0.5 0-1-0.1-0.6-0.1-1.1-0.3-0.5-0.2-1-0.4l-3.7 40.1q-0.3 1-0.9 1.8-0.6 0.9-1.4 1.5-0.8 0.6-1.7 1-1 0.3-2 0.4l-26.5 0.6q-1 0-2-0.2-1-0.3-1.8-0.9-0.8-0.6-1.5-1.4-0.6-0.8-0.9-1.8zm51 8.6q0.5 0.1 0.9 0.3 0.4 0.1 0.9 0.1 0.4 0 0.8 0c1.9 0 3.6-0.8 4.9-2.1 1.2-1.3 1.9-3.1 1.9-4.9-0.1-1.9-0.8-3.6-2.2-4.9-1.3-1.2-3.1-1.9-4.9-1.9-0.1 0-0.2 0.1-0.4 0.1q0.1 0.4 0.2 0.8 0.1 0.4 0.1 0.9-0.1 0.4-0.1 0.8-0.1 0.4-0.2 0.9l-2.6 9.5q0.3 0.2 0.7 0.4z"/>
	<path id="Layer" class="s1" d="m691.4 380.8c0.9 5 10.6 8.5 22.4 7.9 10.7-0.5 19.6-4.3 21.2-8.8q-0.2-0.1-0.5-0.1-0.2-0.1-0.4-0.1-0.3 0-0.5-0.1-0.2 0-0.5 0l-40.7 1.1q-0.1 0-0.3 0-0.1 0-0.2 0-0.1 0-0.3 0.1-0.1 0-0.2 0z"/>
	<path id="Layer" class="s2" d="m715.9 419.1q0 0 0 0 0.1 0 0.1-0.1 0 0 0 0 0 0 0.1 0l5.7-3.8q0.1 0 0.2-0.1 0-0.2 0-0.3 0-0.1 0-0.2-0.1-0.1-0.2-0.2l-6-3.9q-0.1-0.1-0.3-0.1-0.2 0.1-0.4 0.2-0.1 0.2 0 0.4 0 0.2 0.2 0.3l5.3 3.5-5.1 3.4q-0.1 0.1-0.2 0.2 0 0.2 0 0.4 0.1 0.2 0.3 0.2 0.1 0.1 0.3 0.1z"/>
	<path id="Layer" class="s2" d="m706.8 419.5q0.2 0 0.3-0.2 0.1-0.1 0.1-0.2 0-0.2-0.1-0.3 0-0.1-0.2-0.2l-5.3-3.1 5.2-3.8q0.1-0.1 0.2-0.3 0-0.2-0.1-0.4-0.2-0.1-0.4-0.2-0.2 0-0.3 0.1l-5.8 4.3q-0.1 0.1-0.1 0.2-0.1 0.1-0.1 0.2 0 0.1 0.1 0.3 0.1 0.1 0.2 0.1l5.9 3.4q0.1 0.1 0.1 0.1 0.1 0 0.1 0 0.1 0 0.1 0 0.1 0 0.1 0z"/>
	<path id="Layer" class="s2" d="m715.3 422.4q0.1 0 0.1 0 0 0 0-0.1 0 0 0 0 0.1 0 0.1 0 0.1 0 0.1-0.1 0.1-0.1 0.1-0.2 0-0.1 0-0.2 0-0.1-0.1-0.2l-8.1-13.4q-0.1-0.2-0.3-0.2-0.2-0.1-0.4 0.1-0.2 0.1-0.2 0.3-0.1 0.2 0 0.3l8.2 13.4q0 0.1 0.1 0.2 0 0 0.1 0.1 0.1 0 0.2 0 0.1 0 0.1 0z"/>
	<path id="Layer" class="s1" d="m290.7 376.8l0.2 0.7v0.1l6.6 19.8 7.5 22.9 14.1 42.9 0.1 6.7 1.1 53.7-2.9 7.3 3.2 11.9c0 0-1.5-18-9.5-7.7-4.6 5.9-10 11.9-14.4 17.6q9.6 3.9 19.6 7 2.1 0.7 4.3 1.3 0.4 0.2 0.9 0.3 8.2 2.4 16.5 4.3 8.4 1.9 16.8 3.3 8.5 1.3 17 2.2 8.5 0.8 17 1 1.8 0.1 3.5 0.1 0.6 0 1.2 0 1.9 0.1 3.8 0.1 3.9 0 7.7-0.2 7.1-0.2 14.2-0.7 7-0.6 14.1-1.6 7-0.9 13.9-2.2 7-1.4 13.9-3c-0.1-7.6-0.5-16.5-1-26-0.2-4.6-5.3-9.6-5.6-14.5-0.2-3.6 4.4-7.1 4.1-10.8-1.5-22.8-3.5-14-4.9-30.2q-0.2-2.4-0.4-4.6c-0.9-10.3-1.6-16.8-1.6-16.8l6.2-38.7 9.6-60.8-0.7-1.2-0.9-0.4-50.8-25.2-2.8-7q-0.6-1.6-1.6-2.8-1-1.3-2.4-2.3-1.3-0.9-2.9-1.4-1.6-0.5-3.2-0.5l-33.5-0.1q-1.3 0-2.6 0.3-1.3 0.3-2.4 0.9-1.2 0.6-2.2 1.4-1 0.9-1.7 1.9l-9.1 12.6z"/>
	<path id="Layer" class="s1" d="m326.8 453.7l-7.6 16.2-5.1 11.1-9 46.6-4.4 4.8-3.8-16.8-40 8.9c-1.3-7.3-0.4 0.2-1.2-7.8q0.3-0.3 0.7-0.7c0.6-0.6 1.2-1.1 1.2-1.6-0.5-27.6 0.9-74.6 12.3-103q0.7-1.8 1.5-3.4 0.7-1.7 1.6-3.4 0.9-1.6 1.9-3.2 1-1.6 2-3.1 0.4-0.5 0.7-0.9c5.3-7.4 8.6-14.7 13.3-19.9q0 0 0 0 0.1 0 0.1 0 0 0 0 0 0 0 0 0 0-0.1 0-0.1 0 0 0 0 0 0 0 0 0 0 0.1 0l32.4-17.2 1.4 39.1 1 28.1z"/>
	<path id="Layer" class="s1" d="m443.8 458.3l9.5 20.2 3.3 7.1 8.9 46.6 4.4 4.8 3.9-16.8 1.8-0.4 32.4-6.7 9.5 30.1c1-1.8 1.8-3.7 2.2-5.7 0.4-2.1 0.5-4.1 0.2-6.2-0.3-2-1-4-1.9-5.8-1-1.8-2.3-3.5-3.8-4.8-0.6-0.6-1.2-1.2-1.1-1.7 0.5-32.5-1.5-91.7-19.4-116.1-5.7-7.7-9.1-15.4-14.1-20.8q0-0.1 0-0.1l-12.1-19.8-0.7-1.2-0.9-0.4z"/>
	<path id="a657ec4b-47ce-4d2a-9c58-81a811696ca9" class="s5" d="m386.4 311.8c-24.6 0-44.6-20-44.6-44.6 0-24.6 20-44.6 44.6-44.6 24.6 0 44.6 20 44.6 44.6 0 24.6-20 44.6-44.6 44.6z"/>
	<path id="Layer" class="s3" d="m446.6 245.1q-0.2-0.3-0.5-0.5-0.4-0.2-0.7-0.4-0.3-0.1-0.7-0.2-0.4-0.1-0.8-0.1l0.7-1.9c0.2-0.6 0.3-1.2 0.2-1.8-0.1-0.6-0.4-1.2-0.8-1.7-0.4-0.5-0.9-0.8-1.5-1-0.6-0.2-1.2-0.3-1.9-0.2l-2.4 0.5 0.2-1.6q0.2-1-0.2-1.8-0.3-0.9-1-1.5-0.8-0.6-1.7-0.7-0.9-0.2-1.8 0.1-0.4 0.2-0.8 0.3-0.4 0-0.8 0-0.5 0-0.9-0.2-0.4-0.1-0.7-0.3-0.4-0.2-0.7-0.5-0.3-0.2-0.6-0.6-0.2-0.3-0.4-0.7-0.2-0.4-0.3-0.8l-0.8-4.1-0.1-0.2c-4.1-6.9-12.1-11.9-21.8-13.8-8.7-1.6-17.6-0.8-26.2 0-3.4 0.3-7.2 0.7-10.4 2.6-2.7 1.7-5 5.1-4.6 8.5-8.4-2.6-17.5 2.6-22 9.1-5.3 7.7-6.1 17.5-6.3 25.1-0.4 17.9 3.3 32.6 11 43.7 0.6 0.8 0.7 2.5 1.8 3l-0.2-0.4c1.2 0.7 2.5 1.7 2 2.7-1.3 3.1 7.6 9.9 14 12.2 11.5 4.1 26.8 3.7 37.6 2.3l0.4-2.6c3.9-0.5 6.6-1.5 7.4-3.1 1.3-1.2 2.5-2.2 3.5-3.2q0.1 0 0.1-0.1c4.9-4.6 6-7.3 6.5-11.3 0.5-4-0.4-8-1.3-11.7 18.8 2.9-7.3-19.9 10.1-24.3q0.1-0.1 0.2-0.1 0 0 0.1 0 0.1 0 0.2-0.1 0.1 0 0.1 0 0.8-0.2 1.5-0.4 0.9-0.2 1.8-0.5 0.9-0.3 1.7-0.7 0.8-0.3 1.7-0.8 0.8-0.4 1.6-0.8c4.8-3 6.5-7 9-11.4q0.2-0.5 0.4-1 0.1-0.5 0-1.1-0.1-0.5-0.3-1-0.2-0.5-0.6-0.9z"/>
	<path id="Layer" class="s3" d="m544 461.4c0 1.8 0 4.2-0.1 7.3q0 0.6 0 1.3c-0.2 5.5-0.3 10.2-0.5 15.4q0 0.5-0.1 1.1c-0.2 7.2-0.7 15.6-1.4 29-1.4 24.6-3.9 3.4-6.4 12q-0.2 0.7-0.3 1.6-0.2 0.8-0.4 1.6-0.2 0.8-0.4 1.6-0.2 0.8-0.5 1.5-0.3 0.8-0.6 1.6c-1.3 0.8-2.7 1.5-4 2.3q-5.7 3.1-11.5 6-3.3 1.7-6.6 3.2-0.5 0.2-1 0.5-4.3 1.9-8.5 3.7-4.3 1.8-8.7 3.5-4.3 1.7-8.7 3.2-4.4 1.5-8.9 2.8-3.5 1.1-7 2-3.6 1.1-7.3 2-6.9 1.6-13.9 3-6.9 1.3-14 2.2-7 1-14 1.6-7.1 0.5-14.2 0.7-3.8 0.2-7.7 0.2-1.9 0-3.8-0.1-0.6 0-1.2 0-1.7 0-3.5-0.1-8.5-0.2-17-1-8.5-0.9-17-2.2-8.4-1.4-16.8-3.3-8.3-1.9-16.5-4.3l-0.9-0.3q-2.2-0.6-4.3-1.3-9.9-3.1-19.6-7-7.3-3-14.5-6.4 0 0 0 0 0 0 0 0 0 0-0.1 0 0 0 0 0-1.5-0.7-3-1.4-0.2-0.1-0.4-0.3-5.6-2.7-11.1-5.7c-3-7-7.4-8.4-10-14.6q-0.3-0.7-0.6-1.4-0.2-0.7-0.4-1.4-0.3-0.7-0.4-1.4-0.2-0.8-0.3-1.5 0 0 0-0.1c0.3 3.7-1.2-6.6 0 0q-0.1-0.2-0.1-0.4 0-0.6-0.1-1.4c-3.4-33.5-3.2-71.8-4.7-103.3q-0.1-3.1-0.3-5.9-0.1-0.9-0.1-1.8 0.1-0.3 0.2-0.6 0 0 0 0 0 0 0.1 0 0-0.1 0-0.1 0 0 0 0 0 0 0-0.1 0 0 0 0 0.1 0 0.1 0 0-0.1 0-0.1 0 0 0.1-0.1 0 0 0 0 0 0 0 0 0-0.1 0-0.1 0 0 0 0 0.1-0.2 0.3-0.4 0.1-0.1 0.2-0.2 0 0 0 0 0 0 0-0.1 0 0 0 0 0.1 0 0.1 0 0 0 0-0.1 0 0 0 0 0 0 0.1 0 0 0 0-0.1 0 0 0.1-0.1 0 0 0 0 0 0 0 0 0.1 0 0.1-0.1 0 0 0 0 0 0 0.1 0 0-0.1 0-0.1 0 0 0.1-0.1 0 0 0.1 0 0.1-0.1 0.2-0.3 0.2-0.1 0.3-0.2 0.1-0.1 0.3-0.2 0.1-0.1 0.3-0.2 0.2-0.2 0.4-0.3 0.4-0.2 0.8-0.4 0.4-0.2 0.8-0.4 0.4-0.2 0.8-0.4 0.4-0.2 0.8-0.3 0.6-0.2 1.2-0.4 0.2-0.1 0.4-0.2 0.3-0.1 0.7-0.2 1.7-0.5 3.7-0.9 0.2 0 0.5-0.1 0.3 0 0.7-0.1 0.5-0.1 1.1-0.2 4.4-0.7 10-1 0.5-0.1 1.1-0.1 0.6 0 1.2 0 0.5-0.1 1.1-0.1 0.5 0 1.1 0 1.5-0.1 3.1-0.1 4.5-0.1 9.5 0 2.3 0.1 4.8 0.2 0.1 0 0.3 0 2.1 0.1 4.3 0.2 1.5 0 3 0.1 1.5 0.1 3 0.2 1.1 0.1 2.3 0.2 1 0.1 2 0.1l0.9 0.1q0.7 0 1.5 0.1 1.6 0.1 3.3 0.3 1.6 0.1 3.3 0.3 1.7 0.1 3.5 0.3 0.1 0 0.3 0 1.5 0.2 3.1 0.3 0.4 0.1 0.8 0.1 1.5 0.2 3 0.3 0.4 0.1 0.9 0.1 1.2 0.2 2.4 0.3c1 0.1 2.1 0.2 3.1 0.4q1.3 0.1 2.5 0.2 1.9 0.3 3.8 0.5 0.8 0.1 1.5 0.2 5.5 0.7 11.2 1.5 8.6 1.2 17.4 2.6 8.8 1.5 17.7 3.1 2.2 0.4 4.5 0.8 1 0.2 2 0.4 1.8 0.3 3.5 0.6 1.8 0.3 3.5 0.7 2.1 0.4 4.2 0.8c9 1.8 18.1 3.7 26.9 5.7q2.2 0.5 4.3 1 4.4 1 8.6 2.1 1.2 0.2 2.3 0.5 2.9 0.7 5.8 1.5l0.3 0.1q2.1 0.5 4.1 1 4.8 1.3 9.5 2.6 3.1 0.8 6.1 1.7 4.5 1.3 8.8 2.6 1.1 0.4 2.1 0.7 3.2 1 6.2 2 2.4 0.7 4.7 1.5 2.3 0.8 4.5 1.6 1.5 0.5 2.9 1.1 2 0.7 3.9 1.5 0.6 0.2 1.2 0.4 0.4 0.2 0.8 0.3 0.7 0.3 1.4 0.6 0.7 0.3 1.4 0.6 0.6 0.2 1.3 0.5 0.7 0.3 1.3 0.6 0.6 0.2 1.1 0.5 1.1 0.4 2.1 0.9 0.5 0.2 1 0.5l0.8 0.3q0.2 0.1 0.4 0.2 0.3 0.2 0.7 0.4 0.9 0.4 1.7 0.8 1.1 0.6 2.2 1.1 1.1 0.6 2.1 1.1 0.1 0.1 0.3 0.2 0.2 0.2 0.4 0.3 0.8 0.4 1.5 0.9 1.5 0.8 2.7 1.7 0.3 0.2 0.6 0.4 0.9 0.7 1.8 1.3 0 0 0 0 0.3 0.3 0.6 0.5 0.2 0.2 0.4 0.4 0.8 0.6 1.5 1.3 0 0 0.1 0.1 0 0 0.1 0.1 0 0 0.1 0.1 0 0.1 0.1 0.1 0 0 0 0.1 0 0 0.1 0 0 0 0 0 0 0.1 0 0.1 0.3 0.3 0.6 0.6 0 0 0 0 0 0 0 0 0 0 0 0 0 0.1 0.1 0.1 0.3 0.4 0.6 0.8 0.2 0.2 0.3 0.4 0.2 0.3 0.4 0.5 0.1 0.3 0.2 0.5 0.1 0.1 0.2 0.3 0 0.1 0.1 0.2 0.1 0.2 0.1 0.3 0.1 0.2 0.2 0.3 0 0.1 0 0.2 0.1 0.1 0.1 0.2 0 0.1 0.1 0.2 0 0.1 0 0.2 0.1 0.1 0.1 0.2 0 0.1 0 0.2 0 0.1 0.1 0.2 0 0.1 0 0.2z"/>
	<path id="Layer" class="s6" d="m544 461.4c0 1.8 0 4.2-0.1 7.3q0 0.6-0.1 1.3c-0.1 4.2-0.2 9.5-0.4 15.4q0 0.5-0.1 1.1c-0.2 7.2-0.7 15.6-1.4 29-1.4 24.6-3.9 3.4-6.4 12-6.8-4.2-14.4-8.6-22.4-13.2q-2.2-1.2-4.4-2.4c-16.1-9-34-18.4-52.8-27.7q-1.1-0.6-2.2-1.1c-43-21.2-89.8-41.9-127.8-55.7-7.3-2.6-14.3-5-20.9-7.1-13.9-4.5-25.9-7.6-35.1-8.9-9.6-1.4-16.2-0.9-18.9 2q-0.1-3.1-0.3-5.9-0.1-0.9-0.1-1.8 0.1-0.3 0.2-0.5 0 0 0-0.1 0 0 0 0 0 0 0.1 0 0-0.1 0-0.1 0 0 0 0 0 0 0-0.1 0 0 0 0 0.1 0 0.1 0 0-0.1 0-0.1 0 0 0 0 0-0.1 0-0.1 0.1 0 0.1 0 0-0.1 0-0.1 0.1-0.2 0.3-0.4 0-0.1 0.1-0.1 0 0 0-0.1 0.1 0 0.1-0.1 0 0 0.1 0 0 0 0-0.1 0 0 0 0 0 0 0.1 0 0 0 0-0.1 0 0 0.1-0.1 0 0 0 0 0 0 0 0 0.1 0 0.1-0.1 0 0 0 0 0 0 0.1 0 0-0.1 0-0.1 0 0 0.1-0.1 0 0 0.1 0 0.1-0.1 0.2-0.3 0.2-0.1 0.3-0.2 0.1-0.1 0.3-0.2 0.1-0.1 0.3-0.2 0.2-0.2 0.4-0.3 0.4-0.2 0.8-0.4 0.4-0.2 0.8-0.4 0.4-0.2 0.8-0.4 0.4-0.2 0.8-0.3 0.6-0.2 1.2-0.4 0.2-0.1 0.4-0.2 0.3-0.1 0.7-0.2 1.7-0.5 3.7-0.9 0.6-0.1 1.2-0.2 0.5-0.1 1.1-0.2 4.4-0.7 10-1 0.5-0.1 1.1-0.1 0.6 0 1.2 0 0.5-0.1 1.1-0.1 0.5 0 1.1 0 1.5-0.1 3.1-0.1 4.5-0.1 9.5 0 2.3 0.1 4.8 0.2 0.1 0 0.3 0 2.1 0.1 4.3 0.2 1.5 0 3 0.1 1.5 0.1 3 0.2 1.1 0.1 2.3 0.2 1 0.1 2 0.1 1.2 0.1 2.4 0.2 1.6 0.1 3.3 0.3 1.6 0.1 3.3 0.3 1.7 0.1 3.5 0.3 0.1 0 0.3 0 1.5 0.2 3.1 0.3 8.8 0.9 18 2.1 5.5 0.7 11.2 1.5 8.6 1.2 17.4 2.6 8.8 1.5 17.7 3.1 2.2 0.4 4.5 0.8 2.8 0.5 5.5 1 1.8 0.3 3.5 0.7 2.1 0.4 4.2 0.8c9 1.8 18.1 3.7 26.9 5.7q2.2 0.5 4.3 1 4.4 1 8.6 2.1 1.2 0.3 2.3 0.5 2.9 0.8 5.8 1.5 0.1 0 0.3 0.1 2.1 0.5 4.1 1 4.8 1.3 9.5 2.6 3.1 0.8 6.1 1.7 4.5 1.3 8.8 2.6 1.1 0.4 2.1 0.7 3.2 1 6.2 2 2.4 0.7 4.7 1.5 2.3 0.8 4.5 1.6 1.5 0.5 2.9 1.1 2 0.7 3.9 1.5 0.6 0.2 1.2 0.4 1.1 0.4 2.2 0.9 0.7 0.3 1.4 0.6 0.6 0.2 1.3 0.5 0.7 0.3 1.3 0.6 0.6 0.2 1.1 0.5 1.1 0.4 2.1 0.9 0.5 0.2 1 0.5l0.8 0.3q0.2 0.1 0.4 0.2 1.2 0.6 2.4 1.2 1.1 0.6 2.2 1.1 1.2 0.7 2.4 1.3 0.2 0.2 0.4 0.3 0.8 0.4 1.5 0.9 1.5 0.8 2.7 1.7 1.3 0.9 2.4 1.7 0 0 0 0 0.5 0.5 1 0.9 0.8 0.6 1.5 1.3 0 0 0.1 0.1 0 0 0.1 0.1 0 0 0.1 0.1 0 0.1 0.1 0.1 0 0 0 0.1 0 0 0.1 0 0 0 0 0 0 0.1 0 0.1 0.3 0.3 0.7 0.7 0.3 0.4 0.6 0.8 0.2 0.2 0.3 0.4 0.2 0.3 0.4 0.5 0.1 0.3 0.2 0.5 0.1 0.1 0.2 0.3 0 0.1 0.1 0.2 0.1 0.2 0.1 0.3 0.1 0.2 0.2 0.3 0 0.1 0 0.2 0.1 0.1 0.1 0.2 0 0.1 0.1 0.2 0 0.1 0 0.2 0.1 0.1 0.1 0.2 0 0.1 0 0.2 0 0.1 0.1 0.2 0 0.1 0 0.2z"/>
	<g id="Folder 1">
		<path id="Layer" class="s4" d="m250.3 309.1c-2.5 0-4.5-2-4.5-4.4 0-2.5 2-4.5 4.5-4.5 2.5 0 4.5 2 4.5 4.5 0 2.4-2 4.4-4.5 4.4z"/>
	</g>
</svg>